# Blender v3.2.0 OBJ File: 'art.blend'
# www.blender.org
mtllib rock.mtl
o Rock_Icosphere
v -0.214953 -0.044069 -0.002530
v -0.100701 0.045075 -0.202193
v 0.267683 -0.058903 0.010407
v 0.289963 0.173372 0.074555
v 0.014863 -0.126460 0.231039
v 0.117814 -0.163437 0.129013
v 0.168251 -0.108746 0.243993
v 0.287289 -0.081394 0.123184
v 0.180534 -0.098196 -0.026842
v -0.150205 -0.102917 0.122126
v -0.084686 -0.131657 -0.070806
v -0.013840 -0.168158 0.089992
v -0.034142 -0.045689 -0.157033
v 0.037373 -0.078142 -0.119039
v 0.346212 0.120374 0.148537
v 0.303389 0.008999 0.213319
v 0.311659 0.026407 0.023138
v 0.300206 0.115670 0.046554
v 0.017716 -0.041132 0.288005
v 0.185616 0.076548 0.287419
v -0.100267 0.019300 0.259116
v -0.125325 0.136779 0.221368
v -0.180279 0.106179 -0.109945
v 0.087984 0.135730 -0.169692
v -0.011259 0.056258 -0.201512
v 0.294809 0.181238 0.155812
v -0.227042 0.204984 0.035730
v -0.173263 0.195025 -0.096396
v -0.037898 0.183352 -0.193098
v 0.124572 0.253557 0.155743
v 0.100785 0.179722 0.258465
v 0.137989 0.267628 0.024690
v 0.042275 0.295659 0.047342
v -0.076724 0.244944 0.156962
v -0.051924 0.287091 0.047997
v -0.102057 0.263973 -0.040651
v -0.003936 0.272466 -0.096711
v 0.205290 0.215405 -0.005618
v 0.103001 0.228824 -0.105136
v -0.081599 0.222385 -0.153243
v -0.173767 0.264426 -0.012174
v -0.175064 0.199763 0.096694
v -0.015010 0.200393 0.234569
v 0.253427 0.041254 -0.057513
v 0.230884 0.113882 -0.133399
v -0.096217 0.140883 -0.189354
v -0.232463 0.143801 -0.015418
v -0.250578 -0.005054 0.073365
v -0.209982 0.088495 0.126656
v 0.054165 0.079862 0.303787
v 0.257762 0.080163 0.251971
v 0.150591 0.007021 -0.170719
v -0.154927 0.021095 -0.164240
v -0.223995 0.012594 -0.055306
v -0.163037 -0.031869 0.231175
v -0.194554 -0.013031 0.145147
v 0.225066 -0.040321 0.267575
v 0.324383 0.002762 0.083566
v 0.311043 -0.045172 0.163975
v -0.141238 -0.107610 -0.114986
v -0.156823 -0.116148 0.025723
v -0.038881 -0.161485 0.148821
v -0.082151 -0.102971 0.206224
v 0.160079 -0.117438 0.079722
v 0.153462 -0.130687 0.173562
vt 0.242957 0.176178
vt 0.295455 0.118096
vt 0.330510 0.178814
vt 0.301435 0.207183
vt 0.790061 0.157461
vt 0.885962 0.132521
vt 0.840337 0.197817
vt 0.428201 0.157461
vt 0.502416 0.119892
vt 0.462518 0.222383
vt 0.762857 0.196826
vt 0.418893 0.219213
vt 0.544457 0.269459
vt 0.605264 0.290058
vt 0.568182 0.354286
vt 0.379562 0.320288
vt 0.438055 0.343485
vt 0.433037 0.393651
vt 0.500000 0.393651
vt 0.455923 0.433017
vt 0.500849 0.347961
vt 0.624352 0.451576
vt 0.614040 0.378332
vt 0.659091 0.433017
vt 0.684639 0.388766
vt 0.653168 0.325464
vt 0.745686 0.314921
vt 0.769907 0.388766
vt 0.795455 0.354286
vt 0.817895 0.422094
vt 0.853604 0.332299
vt 0.874871 0.374193
vt 0.818182 0.314921
vt 0.921910 0.292717
vt 0.068182 0.433017
vt 0.056598 0.374193
vt 0.102863 0.451679
vt 0.136365 0.393651
vt 0.102152 0.334394
vt 0.158347 0.336060
vt 0.036585 0.292717
vt 0.259337 0.376685
vt 0.318182 0.393651
vt 0.279105 0.441815
vt 0.354125 0.331396
vt 0.189000 0.325244
vt 0.316351 0.313873
vt 0.398955 0.275556
vt 0.487127 0.258488
vt 0.581368 0.219664
vt 0.641087 0.206261
vt 0.664149 0.266795
vt 0.737292 0.246287
vt 0.795455 0.275556
vt 0.872106 0.265368
vt 0.066255 0.217250
vt 0.147718 0.254820
vt 0.126865 0.180106
vt 0.263965 0.251369
vt 0.217983 0.252283
vt 0.340910 0.275556
vt 0.522728 0.196826
vt 0.561807 0.129137
vt 0.599082 0.143306
vt 0.698929 0.187097
vt 0.705273 0.119355
vt 0.886364 0.196826
vt 0.931946 0.196604
vt 0.965481 0.217250
vt 0.942929 0.137341
vt 1.000000 0.157461
vt 0.213853 0.128690
vt 0.381461 0.205319
vt 0.359695 0.141267
vt 0.522728 0.039365
vt 0.557873 0.021508
vt 0.590909 0.078731
vt 0.659091 0.118096
vt 0.703259 0.078731
vt 0.778980 0.103971
vt 0.743743 0.039365
vt 0.849064 0.103971
vt 0.904801 0.035587
vt 0.927838 0.078731
vt 0.977273 0.118096
vt 0.424416 0.105274
vt 0.370523 0.066803
vt 0.318182 0.078731
vt 0.340910 0.039365
vt 0.363637 0.000000
vt 0.163901 0.031035
vt 0.215724 0.078731
vt 0.136365 0.078731
vt 0.135585 0.118096
vt 0.204546 0.039365
vn 0.4333 -0.3600 0.8263
vn 0.2568 -0.7516 0.6076
vn 0.8572 -0.4427 0.2632
vn 0.8159 -0.1340 0.5624
vn -0.8317 -0.5362 -0.1440
vn -0.6407 -0.7212 0.2635
vn -0.9533 -0.2401 0.1831
vn 0.6639 -0.5835 -0.4676
vn 0.4091 -0.8093 -0.4216
vn 0.8075 -0.2438 -0.5371
vn -0.9431 -0.0372 -0.3304
vn 0.9085 -0.0543 -0.4143
vn 0.2760 0.3072 -0.9107
vn 0.0130 0.4254 -0.9049
vn 0.3709 0.7221 -0.5840
vn 0.7048 0.6464 -0.2925
vn 0.6051 0.7277 -0.3229
vn 0.4067 0.9068 -0.1111
vn 0.0405 0.8968 -0.4406
vn 0.0808 0.9941 0.0720
vn -0.2080 0.9689 0.1344
vn -0.2301 0.9150 -0.3315
vn -0.3575 0.6700 -0.6506
vn -0.6675 0.4327 -0.6060
vn -0.5163 0.8461 -0.1322
vn -0.6085 0.6119 0.5052
vn -0.3531 0.8092 0.4696
vn -0.8639 0.4718 0.1765
vn -0.5694 0.3773 0.7303
vn 0.2359 0.8913 0.3872
vn -0.1927 0.6362 0.7471
vn 0.1288 0.6112 0.7809
vn 0.5989 0.7283 0.3329
vn 0.8680 0.2727 -0.4149
vn 0.6941 0.2203 -0.6854
vn 0.1113 -0.1506 -0.9823
vn -0.2916 -0.1820 -0.9391
vn -0.4806 0.2723 -0.8336
vn -0.8075 0.1525 -0.5699
vn -0.9615 0.1109 -0.2515
vn -0.8653 0.2011 0.4591
vn -0.3731 -0.0425 0.9268
vn -0.0734 0.1501 0.9859
vn -0.1523 -0.3253 0.9333
vn 0.5772 0.2598 0.7742
vn 0.2794 0.1924 0.9407
vn 0.9313 0.2689 0.2457
vn 0.3956 -0.3597 -0.8451
vn 0.1584 -0.7232 -0.6723
vn 0.0660 -0.5408 -0.8386
vn -0.6314 -0.1698 -0.7566
vn -0.4171 -0.7065 -0.5718
vn -0.8645 -0.2757 0.4203
vn -0.6376 -0.3154 0.7028
vn -0.4075 -0.6616 0.6295
vn 0.9607 -0.2286 -0.1575
vn 0.6444 -0.7646 -0.0112
vn 0.3390 -0.9257 -0.1680
vn -0.0225 -0.9975 -0.0672
vn -0.0535 -0.9326 -0.3569
vn -0.5963 -0.8027 0.0062
vn -0.2205 -0.9370 0.2708
vn -0.1025 -0.7698 0.6300
vn 0.2976 -0.9373 0.1816
vn 0.2218 -0.9703 0.0962
usemtl None
s 1
f 57/1/1 7/2/2 59/3/3
f 57/1/1 59/3/3 16/4/4
f 1/5/5 10/6/6 48/7/7
f 3/8/8 9/9/9 44/10/10
f 1/5/5 48/7/7 54/11/11
f 3/8/8 44/10/10 17/12/12
f 24/13/13 29/14/14 39/15/15
f 4/16/16 38/17/17 32/18/18
f 32/18/18 37/19/19 33/20/20
f 38/17/17 39/21/15 32/18/18
f 32/18/18 39/21/15 37/19/19
f 33/22/20 37/23/19 35/24/21
f 37/23/19 36/25/22 35/24/21
f 37/23/19 40/26/23 36/25/22
f 39/15/15 29/14/14 37/23/19
f 29/14/14 40/26/23 37/23/19
f 40/26/23 28/27/24 36/25/22
f 36/28/22 41/29/25 35/30/21
f 41/29/25 42/31/26 35/30/21
f 35/30/21 42/31/26 34/32/27
f 36/28/22 28/27/24 41/29/25
f 28/27/24 27/33/28 41/29/25
f 41/29/25 27/33/28 42/31/26
f 42/31/26 22/34/29 34/32/27
f 35/35/21 34/36/27 33/37/20
f 34/36/27 30/38/30 33/37/20
f 34/36/27 43/39/31 30/38/30
f 43/39/31 31/40/32 30/38/30
f 22/41/29 43/39/31 34/36/27
f 30/42/30 32/43/18 33/44/20
f 30/42/30 4/45/16 32/43/18
f 31/46/32 26/47/33 30/42/30
f 30/42/30 26/47/33 4/45/16
f 18/48/34 38/17/17 4/16/16
f 17/12/12 44/10/10 18/48/34
f 44/10/10 45/49/35 18/48/34
f 18/48/34 45/49/35 38/17/17
f 45/49/35 39/21/15 38/17/17
f 45/49/35 24/13/13 39/21/15
f 25/50/36 29/14/14 24/13/13
f 25/50/36 2/51/37 29/14/14
f 2/51/37 46/52/38 29/14/14
f 29/14/14 46/52/38 40/26/23
f 54/11/11 48/7/7 23/53/39
f 23/53/39 47/54/40 28/27/24
f 47/54/40 27/33/28 28/27/24
f 23/53/39 48/7/7 47/54/40
f 48/7/7 49/55/41 47/54/40
f 47/54/40 49/55/41 27/33/28
f 49/55/41 42/31/26 27/33/28
f 49/55/41 22/34/29 42/31/26
f 21/56/42 50/57/43 22/41/29
f 22/41/29 50/57/43 43/39/31
f 50/57/43 31/46/32 43/39/31
f 19/58/44 50/57/43 21/56/42
f 57/1/1 51/59/45 20/60/46
f 20/60/46 51/59/45 31/46/32
f 51/59/45 26/47/33 31/46/32
f 57/1/1 16/4/4 51/59/45
f 51/59/45 16/4/4 26/47/33
f 16/4/4 15/61/47 26/47/33
f 15/61/47 4/16/16 26/47/33
f 44/10/10 52/62/48 45/49/35
f 45/49/35 52/62/48 24/13/13
f 52/62/48 25/50/36 24/13/13
f 44/10/10 9/9/9 52/62/48
f 9/9/9 14/63/49 52/62/48
f 52/62/48 14/63/49 25/50/36
f 14/63/49 13/64/50 25/50/36
f 25/50/36 13/64/50 2/51/37
f 40/26/23 23/53/39 28/27/24
f 46/52/38 23/53/39 40/26/23
f 2/51/37 53/65/51 46/52/38
f 46/52/38 53/65/51 23/53/39
f 53/65/51 54/11/11 23/53/39
f 53/65/51 60/66/52 54/11/11
f 60/66/52 1/5/5 54/11/11
f 48/7/7 56/67/53 49/55/41
f 49/55/41 55/68/54 22/34/29
f 55/68/54 21/69/42 22/34/29
f 49/55/41 56/67/53 55/68/54
f 48/7/7 10/6/6 56/67/53
f 56/67/53 10/6/6 55/68/54
f 10/6/6 63/70/55 55/68/54
f 55/68/54 63/70/55 21/69/42
f 63/70/55 19/71/44 21/69/42
f 50/57/43 20/60/46 31/46/32
f 19/58/44 57/1/1 50/57/43
f 50/57/43 57/1/1 20/60/46
f 19/58/44 7/72/2 57/1/1
f 15/61/47 18/48/34 4/16/16
f 16/4/4 58/73/56 15/61/47
f 15/61/47 58/73/56 18/48/34
f 58/73/56 17/12/12 18/48/34
f 16/4/4 59/3/3 58/73/56
f 59/3/3 8/74/57 58/73/56
f 8/74/57 3/8/8 58/73/56
f 58/73/56 3/8/8 17/12/12
f 64/75/58 12/76/59 9/9/9
f 12/76/59 11/77/60 9/9/9
f 9/9/9 11/77/60 14/63/49
f 11/77/60 13/64/50 14/63/49
f 13/78/50 53/65/51 2/51/37
f 11/79/60 60/66/52 13/78/50
f 13/78/50 60/66/52 53/65/51
f 11/79/60 61/80/61 60/66/52
f 61/80/61 1/5/5 60/66/52
f 12/81/59 61/80/61 11/79/60
f 61/82/61 10/6/6 1/5/5
f 12/83/59 62/84/62 61/82/61
f 61/82/61 62/84/62 10/6/6
f 62/84/62 63/70/55 10/6/6
f 62/84/62 5/85/63 63/70/55
f 5/85/63 19/71/44 63/70/55
f 3/8/8 8/74/57 9/86/9
f 8/74/57 64/87/58 9/86/9
f 59/3/3 7/2/2 8/74/57
f 7/2/2 65/88/64 8/74/57
f 8/74/57 65/88/64 64/87/58
f 65/88/64 6/89/65 64/87/58
f 6/89/65 12/90/59 64/87/58
f 12/91/59 65/92/64 62/93/62
f 5/94/63 7/72/2 19/58/44
f 62/93/62 65/92/64 5/94/63
f 65/92/64 7/72/2 5/94/63
f 12/91/59 6/95/65 65/92/64
